<?xml version="1.0" encoding="utf-8"?>
<svg version="1.1" xmlns:xlink="http://www.w3.org/1999/xlink" width="22px" height="25px" xmlns="http://www.w3.org/2000/svg">
  <g transform="matrix(1 0 0 1 -50 -18 )">
    <path d="M 21.903985098039215 6.452364406779661  C 21.903985098039215 6.392429576271185  21.872879858823527 6.361875508474577  21.872879858823527 6.332494745762711  C 21.841774619607836 6.301940677966102  21.841774619607836 6.272559915254236  21.811863850980394 6.2420058474576265  L 21.780758611764703 6.211451779661017  L 21.749653372549012 6.211451779661017  L 11.151942784313722 0.1945026271186438  C 11.120837545098036 0.1945026271186438  11.090926776470583 0.1639485593220341  11.090926776470583 0.1639485593220341  L 11.059821537254901 0.1639485593220341  L 11.028716298039212 0.1639485593220341  L 10.967700290196078 0.1639485593220341  L 10.936595050980392 0.1639485593220341  L 10.905489811764706 0.1639485593220341  C 10.874384572549019 0.1639485593220341  10.84447380392157 0.1945026271186438  10.84447380392157 0.1945026271186438  L 0.2467632156862767 6.211451779661017  L 0.21565797647059012 6.211451779661017  L 0.1845527372549043 6.2420058474576265  C 0.15344749803921848 6.272559915254236  0.1235367294117667 6.301940677966102  0.1235367294117667 6.332494745762711  C 0.09243149019608089 6.36304881355932  0.09243149019608089 6.392429576271185  0.09243149019608089 6.422983644067795  L 0.09243149019608089 6.4535377118644055  L 0 6.484091779661015  L 0 18.517990084745758  L 0.09243149019608089 18.608478983050844  L 0.09243149019608089 18.63903305084746  L 0.09243149019608089 18.669587118644067  C 0.09243149019608089 18.669587118644067  0.09243149019608089 18.700141186440682  0.1235367294117667 18.700141186440682  L 0.1546419686274533 18.730695254237293  C 0.1546419686274533 18.730695254237293  0.1546419686274533 18.761249322033905  0.1857472078431391 18.761249322033905  C 0.21685244705882495 18.791803389830516  0.21685244705882495 18.791803389830516  0.2467632156862767 18.82118415254238  L 10.84447380392157 24.838133305084753  L 10.875579043137254 24.838133305084753  L 10.906684282352941 24.838133305084753  C 10.937789521568629 24.838133305084753  10.967700290196078 24.86868737288136  10.998805529411765 24.86868737288136  C 11.029910768627452 24.86868737288136  11.059821537254901 24.86868737288136  11.090926776470592 24.838133305084753  L 11.122032015686274 24.838133305084753  L 11.153137254901964 24.838133305084753  L 21.750847843137255 18.82118415254238  C 21.781953082352942 18.82118415254238  21.781953082352942 18.790630084745764  21.811863850980394 18.761249322033905  L 21.905182631372544 18.6695841101695  L 21.905182631372544 18.63903004237289  L 21.905182631372544 18.608475974576276  L 22 18.51798707627119  L 22 6.452499788135597  L 21.903986016862742 6.452499788135597  Z M 11.826941176470593 1.3085227118644076  L 20.98516156862745 6.48291847457627  L 16.422283921568628 9.070687966101694  L 11.826941176470593 1.3085227118644076  Z M 6.221811372549018 9.190545593220339  L 11 1.0676642372881353  L 15.778494901960787 9.190545593220339  L 6.221811372549018 9.190545593220339  Z M 1.0150834509803948 6.4829726271186425  L 10.173303843137258 1.3085768644067792  L 5.5791861960784335 9.070742118644064  L 1.0150834509803948 6.4829726271186425  Z M 1 17.373409915254236  L 1 7.024678559322034  L 5.271686588235296 9.612448050847457  L 1 17.373409915254236  Z M 0.9244261960784347 18.215903135593216  L 5.701389725490198 10.093021779661015  L 10.479884627450984 18.215903135593216  L 0.9244261960784347 18.215903135593216  Z M 10.693970509803925 18.817598050847455  L 10.693970509803925 23.99187347457627  L 1.536975215686278 18.817598050847455  L 10.693970509803925 18.817598050847455  Z M 15.747499921568629 9.7921743220339  L 11.000245019607846 17.9150556779661  L 6.22175011764706 9.7921743220339  L 15.747499921568629 9.7921743220339  Z M 20.463514823529415 18.817598050847455  L 11.306519529411768 23.99187347457627  L 11.306519529411768 18.817598050847455  L 20.463514823529415 18.817598050847455  Z M 21.077662596078433 18.21590313559322  L 11.520672792156864 18.21590313559322  L 16.29916769411765 10.093021779661019  L 21.077662596078433 18.21590313559322  Z M 21 7.023354830508476  L 21 17.37328957627119  L 16.72733945882353 9.6111243220339  L 21 7.023354830508476  Z " fill-rule="nonzero" fill="#ffffff" stroke="none" transform="matrix(1 0 0 1 50 18 )" />
  </g>
</svg>